<?xml version="1.0" standalone="no"?>
<!DOCTYPE svg PUBLIC "-//W3C//DTD SVG 20010904//EN"
 "http://www.w3.org/TR/2001/REC-SVG-20010904/DTD/svg10.dtd">
<svg version="1.0" xmlns="http://www.w3.org/2000/svg"
 width="260.000000pt" height="260.000000pt" viewBox="0 0 260.000000 260.000000"
 preserveAspectRatio="xMidYMid meet">
<metadata>
Created by potrace 1.11, written by Peter Selinger 2001-2013
</metadata>
<g transform="translate(0.000000,260.000000) scale(0.100000,-0.100000)"
fill="#000000" stroke="none">
<path d="M443 2018 c0 -7 -11 -38 -26 -68 -14 -30 -41 -93 -60 -140 -19 -47
-42 -98 -51 -115 -22 -41 -20 -57 5 -53 16 2 33 33 80 143 32 77 59 148 59
158 0 9 6 17 13 17 16 0 41 -47 87 -170 25 -64 46 -100 60 -100 17 0 11 43
-15 98 -14 30 -25 58 -25 63 0 4 -16 41 -35 82 -19 41 -35 79 -35 85 0 7 -13
12 -28 12 -16 0 -29 -5 -29 -12z"/>
<path d="M1010 2020 c0 -5 0 -143 0 -305 0 -162 0 -299 0 -305 0 -6 60 -10
161 -10 124 0 160 3 157 13 -3 8 -44 13 -139 17 l-134 5 -3 298 c-2 289 -3
297 -22 297 -11 0 -20 -4 -20 -10z"/>
<path d="M1500 1716 l0 -316 166 0 c128 0 165 3 162 13 -3 8 -41 13 -133 15
-77 1 -134 7 -142 14 -11 9 -14 67 -12 297 1 284 1 286 -20 289 -21 3 -21 3
-21 -312z"/>
<path d="M1900 2023 c0 -5 18 -34 40 -66 22 -31 40 -59 40 -62 0 -4 52 -86
142 -225 29 -44 29 -48 26 -155 -3 -107 -2 -110 20 -113 22 -3 22 -2 22 114
l0 118 39 60 c21 34 56 89 77 124 22 35 58 93 82 129 47 74 50 83 23 83 -13 0
-48 -46 -122 -162 -56 -90 -106 -167 -110 -172 -10 -11 -37 10 -50 39 -5 11
-32 54 -59 95 -27 41 -67 103 -87 137 -28 47 -44 63 -60 63 -13 0 -23 -3 -23
-7z"/>
<path d="M614 1649 c3 -17 12 -45 21 -62 8 -18 28 -66 44 -107 22 -56 35 -76
50 -78 12 -2 21 2 21 10 0 19 -91 230 -108 251 -23 26 -35 21 -28 -14z"/>
<path d="M272 1587 c-14 -16 -82 -164 -82 -177 0 -6 10 -10 23 -10 18 0 27 14
55 83 32 84 39 117 23 117 -5 0 -13 -6 -19 -13z"/>
<path d="M0 945 l0 -355 240 0 c140 0 240 4 240 9 0 5 16 15 36 21 82 27 124
90 124 183 l0 66 -55 56 c-50 51 -61 75 -34 75 14 0 49 38 59 66 30 78 -4 154
-85 193 -28 13 -58 28 -67 33 -10 4 -117 8 -238 8 l-220 0 0 -355z m368 163
c35 -35 0 -69 -70 -67 -54 2 -78 14 -78 39 0 10 8 24 18 29 24 14 115 14 130
-1z m17 -268 c34 -38 -6 -70 -89 -70 -47 0 -73 15 -78 45 -5 37 10 45 81 45
55 0 71 -4 86 -20z"/>
<path d="M760 945 l0 -355 115 0 c95 0 115 3 115 15 0 8 0 161 0 340 0 179 0
332 0 340 0 12 -20 15 -115 15 l-115 0 0 -355z"/>
<path d="M1150 945 l0 -355 115 0 115 0 0 82 c0 68 4 87 23 115 12 18 29 33
38 33 11 0 42 -42 85 -115 l69 -114 138 -1 c75 0 137 4 137 9 0 5 -34 60 -75
122 -41 62 -75 113 -75 115 0 1 -22 37 -50 78 -27 42 -50 84 -50 94 0 17 153
199 207 247 45 40 32 45 -109 45 l-133 0 -17 -28 c-38 -60 -159 -207 -171
-207 -9 0 -13 32 -15 118 l-3 117 -114 0 -115 0 0 -355z"/>
<path d="M1990 945 l0 -355 305 0 305 0 0 78 c0 42 -4 83 -9 91 -7 10 -48 14
-181 15 l-173 1 -10 28 c-18 55 -12 57 155 57 84 0 158 4 164 8 13 8 18 141 6
159 -5 9 -54 13 -162 15 l-155 3 0 35 0 35 175 5 175 5 3 88 3 87 -301 0 -300
0 0 -355z"/>
</g>
</svg>
